<svg xmlns="http://www.w3.org/2000/svg" viewBox="0 0 645 238" width="397" height="146">
	<defs>
		<clipPath clipPathUnits="userSpaceOnUse" id="cp1">
			<path d="M-813 -588L871 -588L871 432L-813 432Z" />
		</clipPath>
	</defs>
	<style>
		tspan { white-space:pre }
		.shp0 { fill: #e4e9f2 } 
	</style>
	<g clip-path="url(#cp1)">
		<path fill-rule="evenodd" class="shp0" d="M375.02 -335.39C381.77 -320.72 382.36 -307.81 376.78 -297.02C372.78 -289.3 365.12 -283.72 355.2 -281.3C350.8 -280.22 346.4 -279.85 342.07 -279.85C337.61 -279.85 333.22 -280.25 328.97 -280.7L328.63 -280.73L328.41 -281C327.02 -282.65 325.7 -284.75 326.48 -287.83L326.66 -288.55L327.4 -288.46C332.38 -287.91 337.26 -287.43 342.27 -287.44C349.92 -287.46 360.45 -289.03 367.09 -296.33C372.09 -301.82 376.49 -312.13 369.06 -329.99L369.03 -330.05C369 -330.15 368.97 -330.25 368.92 -330.35C366.98 -334.81 364.99 -338.56 362.85 -341.81C354.66 -354.91 343.78 -365.67 331.36 -372.92C321.57 -378.64 309.91 -382.46 297.64 -383.99L297.57 -384C297.46 -384.03 297.34 -384.05 297.22 -384.06C294.57 -384.38 291.94 -384.59 289.41 -384.69C289.3 -384.69 289.19 -384.69 289.08 -384.68L289.04 -384.68L288.99 -384.68C283.49 -384.87 279.08 -384.49 275.12 -383.5C272.77 -382.92 271.07 -382.25 269.62 -381.33C268.53 -380.64 267.69 -379.76 267.37 -378.96C267.03 -378.11 267.09 -377.09 267.55 -375.77C268.32 -373.54 269.89 -371.59 271.18 -370.13C274.87 -365.96 279.16 -362.38 283.57 -359.77C285.09 -358.87 285.77 -358.56 287.2 -358.13C287.83 -357.95 287.85 -357.94 288.22 -358.06C288.25 -358.07 288.28 -358.08 288.31 -358.1L288.36 -358.14C288.38 -358.16 288.42 -358.21 288.46 -358.25L288.48 -358.29C288.54 -358.38 288.61 -358.47 288.66 -358.57C288.78 -358.77 288.86 -358.91 288.92 -359C288.95 -359.1 288.98 -359.21 289.03 -359.37C289.23 -360 289.38 -360.57 289.49 -361.1C290.03 -363.64 290.08 -367.36 290.06 -370.31C290.05 -373.01 289.96 -375.67 289.86 -378.62L289.82 -379.55L290.76 -379.5C292.73 -379.4 294.77 -379.23 296.81 -378.99L297.54 -378.91L297.57 -378.18C297.73 -373.61 297.81 -369.77 297.64 -365.89C297.46 -361.53 297.07 -352.46 290.13 -350.66C286.59 -349.74 283.02 -351.35 280.63 -352.64C276.57 -354.84 272.39 -358.08 267.86 -362.55C265.24 -365.13 259.2 -371.89 259.74 -378.9C259.99 -382.22 261.7 -385.04 264.82 -387.29C269.06 -390.35 274.47 -391.35 278.71 -391.88C282.09 -392.3 285.73 -392.44 289.52 -392.31C289.54 -406.19 291.5 -422.48 305.38 -428.03C309.18 -429.55 313.73 -430.06 318.89 -429.53C347.61 -426.22 375.23 -404.27 386.08 -376.15C388.35 -370.26 389.44 -364.75 389.33 -359.77C389.21 -354.16 387.38 -349.45 383.22 -344.05C380.93 -341.08 378.25 -338.24 375.02 -335.39ZM381.17 -355.78C383.22 -363.69 380.3 -373.85 372.49 -385.98C364.48 -398.43 353 -408.85 340.15 -415.34C333.19 -418.85 325.98 -421.06 318.71 -421.89C309.97 -422.79 304.16 -420.22 300.95 -414.02C297.65 -407.64 297.26 -399.22 297.22 -391.7C297.25 -391.69 297.28 -391.69 297.31 -391.69C312.87 -389.8 326.95 -384.99 338 -377.8C351.8 -368.82 363.36 -356.55 371.48 -342.25C375.16 -345.55 379.76 -350.33 381.17 -355.78ZM170.31 -105.68L170.31 -103.97L166.79 -103.97L166.79 -92.28L164.74 -92.28L164.74 -103.97L161.24 -103.97L161.24 -105.68L170.31 -105.68ZM186.24 -105.68L188.29 -105.68L188.29 -92.28L186.24 -92.28L186.24 -98.15L180.22 -98.15L180.22 -92.28L178.17 -92.28L178.17 -105.68L180.22 -105.68L180.22 -99.92L186.24 -99.92L186.24 -105.68ZM204.14 -92.28L201 -97.37L199.23 -97.37L199.23 -92.28L197.18 -92.28L197.18 -105.68L200.92 -105.68C202.46 -105.68 203.65 -105.31 204.48 -104.56C205.32 -103.81 205.73 -102.79 205.73 -101.51C205.72 -100.57 205.48 -99.77 205.02 -99.11C204.55 -98.45 203.91 -97.98 203.09 -97.69L206.59 -92.28L204.14 -92.28ZM199.23 -103.97L199.23 -99.08L201.08 -99.08C201.93 -99.08 202.57 -99.3 203.01 -99.75C203.45 -100.19 203.66 -100.78 203.66 -101.53C203.66 -103.16 202.77 -103.97 200.98 -103.97L199.23 -103.97ZM213.91 -99.04C213.91 -101.12 214.46 -102.79 215.58 -104.05C216.69 -105.31 218.18 -105.94 220.05 -105.94C221.96 -105.94 223.47 -105.32 224.57 -104.06C225.67 -102.81 226.22 -101.14 226.22 -99.04C226.22 -96.95 225.66 -95.27 224.56 -94.01C223.45 -92.75 221.95 -92.12 220.07 -92.12C218.2 -92.12 216.71 -92.75 215.59 -94.01C214.47 -95.27 213.91 -96.95 213.91 -99.04ZM217.12 -102.69C216.41 -101.8 216.05 -100.58 216.05 -99.04C216.05 -97.5 216.42 -96.28 217.15 -95.38C217.88 -94.48 218.85 -94.03 220.07 -94.03C221.33 -94.03 222.31 -94.47 223.02 -95.36C223.72 -96.25 224.07 -97.48 224.07 -99.04C224.07 -100.59 223.72 -101.81 223.01 -102.7C222.3 -103.59 221.31 -104.03 220.05 -104.03C218.81 -104.03 217.83 -103.59 217.12 -102.69ZM242.61 -97.37L242.61 -105.68L244.65 -105.68L244.65 -97.41C244.65 -95.67 244.2 -94.35 243.3 -93.45C242.4 -92.55 241.15 -92.1 239.56 -92.1C238 -92.1 236.76 -92.54 235.86 -93.42C234.96 -94.3 234.51 -95.58 234.51 -97.25L234.51 -105.68L236.56 -105.68L236.56 -97.27C236.56 -96.13 236.83 -95.3 237.38 -94.78C237.93 -94.25 238.66 -93.99 239.56 -93.99C241.59 -93.99 242.61 -95.12 242.61 -97.37ZM264.26 -99.94L264.26 -93.51L264.24 -93.51L264.26 -93.37C263.11 -92.54 261.66 -92.12 259.93 -92.12C257.83 -92.12 256.15 -92.74 254.87 -93.97C253.59 -95.2 252.95 -96.88 252.95 -99C252.95 -101.06 253.59 -102.72 254.89 -104C256.18 -105.28 257.82 -105.92 259.81 -105.92C261.36 -105.92 262.66 -105.62 263.71 -105.03L263.71 -102.92C262.57 -103.64 261.29 -103.99 259.89 -103.99C258.46 -103.99 257.3 -103.54 256.42 -102.62C255.54 -101.71 255.09 -100.5 255.09 -99C255.09 -97.46 255.53 -96.25 256.4 -95.36C257.27 -94.47 258.46 -94.03 259.99 -94.03C260.78 -94.03 261.54 -94.18 262.25 -94.47L262.25 -98.17L259.53 -98.17L259.53 -99.94L264.26 -99.94ZM281.07 -105.68L283.12 -105.68L283.12 -92.28L281.07 -92.28L281.07 -98.15L275.04 -98.15L275.04 -92.28L272.99 -92.28L272.99 -105.68L275.04 -105.68L275.04 -99.92L281.07 -99.92L281.07 -105.68ZM304.91 -92.28L302.87 -92.28L302.87 -105.68L304.91 -105.68L304.91 -92.28ZM307.62 -98.92L312.83 -92.28L310.24 -92.28L305.17 -98.9L310.05 -105.68L312.53 -105.68L307.62 -98.92ZM320.74 -92.28L320.74 -105.68L323.17 -105.68L326.47 -100.08C327.08 -99.03 327.64 -98.06 328.13 -97.17C328.63 -96.28 328.97 -95.66 329.16 -95.3L329.44 -94.75C329.36 -95.95 329.32 -97.72 329.32 -100.06L329.32 -105.68L331.36 -105.68L331.36 -92.28L328.94 -92.28L325.62 -97.87C325.02 -98.88 324.47 -99.83 323.98 -100.72C323.48 -101.62 323.13 -102.26 322.93 -102.66L322.63 -103.24C322.74 -101.91 322.79 -100.13 322.79 -97.89L322.79 -92.28L320.74 -92.28ZM339.7 -99.04C339.7 -101.12 340.25 -102.79 341.37 -104.05C342.48 -105.31 343.97 -105.94 345.84 -105.94C347.75 -105.94 349.26 -105.32 350.36 -104.06C351.46 -102.81 352.01 -101.14 352.01 -99.04C352.01 -96.95 351.45 -95.27 350.35 -94.01C349.24 -92.75 347.75 -92.12 345.86 -92.12C343.99 -92.12 342.5 -92.75 341.38 -94.01C340.26 -95.27 339.7 -96.95 339.7 -99.04ZM342.91 -102.69C342.2 -101.8 341.85 -100.58 341.85 -99.04C341.85 -97.5 342.21 -96.28 342.94 -95.38C343.67 -94.48 344.64 -94.03 345.86 -94.03C347.12 -94.03 348.1 -94.47 348.81 -95.36C349.51 -96.25 349.86 -97.48 349.86 -99.04C349.86 -100.59 349.51 -101.81 348.8 -102.7C348.09 -103.59 347.1 -104.03 345.84 -104.03C344.6 -104.03 343.62 -103.59 342.91 -102.69ZM367.48 -105.49L369.29 -105.49L370.7 -100.71L372.51 -94.41C373 -96.82 373.46 -98.92 373.89 -100.71L375.06 -105.68L377.13 -105.68L373.85 -92.28L371.4 -92.28L370.13 -96.52L368.4 -102.5C368.09 -101.24 367.53 -99.25 366.73 -96.52L365.49 -92.28L363.03 -92.28L359.51 -105.68L361.63 -105.68L362.89 -100.73L364.36 -94.45C364.96 -96.67 365.54 -98.77 366.11 -100.73L367.48 -105.49ZM387.19 -94.09L392.68 -94.09L392.68 -92.28L385.14 -92.28L385.14 -105.68L387.19 -105.68L387.19 -94.09ZM402.7 -93.99L408.39 -93.99L408.39 -92.28L400.65 -92.28L400.65 -105.68L408.29 -105.68L408.29 -103.97L402.7 -103.97L402.7 -99.84L407.65 -99.84L407.65 -98.13L402.7 -98.13L402.7 -93.99ZM416.84 -105.68L421.02 -105.68C423.01 -105.68 424.64 -105.07 425.91 -103.83C427.18 -102.6 427.82 -101.03 427.82 -99.12C427.82 -97.13 427.22 -95.49 426.02 -94.21C424.82 -92.92 423.17 -92.28 421.06 -92.28L416.84 -92.28L416.84 -105.68ZM418.93 -94.01L421.04 -94.01C422.56 -94.01 423.72 -94.49 424.52 -95.44C425.32 -96.4 425.71 -97.62 425.71 -99.12C425.71 -100.5 425.28 -101.65 424.42 -102.56C423.56 -103.48 422.41 -103.93 420.98 -103.93L418.93 -103.93L418.93 -94.01ZM446.85 -99.94L446.85 -93.51L446.83 -93.51L446.85 -93.37C445.7 -92.54 444.26 -92.12 442.52 -92.12C440.42 -92.12 438.74 -92.74 437.46 -93.97C436.18 -95.2 435.54 -96.88 435.54 -99C435.54 -101.06 436.18 -102.72 437.48 -104C438.77 -105.28 440.41 -105.92 442.4 -105.92C443.95 -105.92 445.25 -105.62 446.3 -105.03L446.3 -102.92C445.16 -103.64 443.88 -103.99 442.48 -103.99C441.05 -103.99 439.89 -103.54 439.01 -102.62C438.13 -101.71 437.69 -100.5 437.69 -99C437.69 -97.46 438.12 -96.25 438.99 -95.36C439.86 -94.47 441.05 -94.03 442.58 -94.03C443.37 -94.03 444.13 -94.18 444.85 -94.47L444.85 -98.17L442.12 -98.17L442.12 -99.94L446.85 -99.94ZM457.63 -93.99L463.32 -93.99L463.32 -92.28L455.58 -92.28L455.58 -105.68L463.22 -105.68L463.22 -103.97L457.63 -103.97L457.63 -99.84L462.59 -99.84L462.59 -98.13L457.63 -98.13L457.63 -93.99ZM235.67 165.15L235.67 166.86L232.15 166.86L232.15 178.55L230.11 178.55L230.11 166.86L226.61 166.86L226.61 165.15L235.67 165.15ZM251.61 165.15L253.65 165.15L253.65 178.55L251.61 178.55L251.61 172.68L245.58 172.68L245.58 178.55L243.53 178.55L243.53 165.15L245.58 165.15L245.58 170.91L251.61 170.91L251.61 165.15ZM269.5 178.55L266.36 173.46L264.59 173.46L264.59 178.55L262.54 178.55L262.54 165.15L266.28 165.15C267.82 165.15 269.01 165.52 269.84 166.27C270.68 167.02 271.1 168.04 271.1 169.32C271.08 170.26 270.84 171.06 270.38 171.72C269.91 172.38 269.27 172.85 268.45 173.14L271.95 178.55L269.5 178.55ZM264.59 166.86L264.59 171.75L266.44 171.75C267.29 171.75 267.93 171.53 268.37 171.08C268.81 170.64 269.03 170.05 269.03 169.3C269.03 167.67 268.13 166.86 266.34 166.86L264.59 166.86ZM279.27 171.79C279.27 169.71 279.83 168.04 280.94 166.78C282.05 165.52 283.54 164.89 285.41 164.89C287.32 164.89 288.83 165.51 289.93 166.77C291.03 168.02 291.58 169.69 291.58 171.79C291.58 173.88 291.03 175.56 289.92 176.82C288.81 178.08 287.32 178.71 285.43 178.71C283.56 178.71 282.07 178.08 280.95 176.82C279.83 175.56 279.27 173.88 279.27 171.79ZM282.48 168.14C281.77 169.03 281.42 170.25 281.42 171.79C281.42 173.33 281.78 174.55 282.51 175.45C283.24 176.35 284.21 176.8 285.43 176.8C286.69 176.8 287.67 176.36 288.38 175.47C289.08 174.58 289.43 173.35 289.43 171.79C289.43 170.24 289.08 169.02 288.37 168.13C287.66 167.24 286.67 166.8 285.41 166.8C284.17 166.8 283.19 167.24 282.48 168.14ZM307.97 173.46L307.97 165.15L310.02 165.15L310.02 173.42C310.02 175.16 309.56 176.48 308.66 177.38C307.76 178.28 306.52 178.73 304.92 178.73C303.36 178.73 302.13 178.29 301.23 177.41C300.32 176.53 299.87 175.25 299.87 173.58L299.87 165.15L301.92 165.15L301.92 173.56C301.92 174.7 302.2 175.53 302.75 176.05C303.3 176.58 304.02 176.84 304.92 176.84C306.95 176.84 307.97 175.71 307.97 173.46ZM329.63 170.89L329.63 177.32L329.61 177.32L329.63 177.46C328.47 178.29 327.03 178.71 325.29 178.71C323.19 178.71 321.51 178.09 320.23 176.86C318.95 175.63 318.31 173.95 318.31 171.83C318.31 169.77 318.96 168.11 320.25 166.83C321.54 165.55 323.18 164.91 325.17 164.91C326.72 164.91 328.02 165.21 329.07 165.8L329.07 167.91C327.93 167.19 326.66 166.84 325.25 166.84C323.82 166.84 322.66 167.29 321.78 168.21C320.9 169.12 320.46 170.33 320.46 171.83C320.46 173.37 320.89 174.58 321.76 175.47C322.63 176.36 323.82 176.8 325.35 176.8C326.14 176.8 326.9 176.65 327.62 176.36L327.62 172.66L324.89 172.66L324.89 170.89L329.63 170.89ZM346.43 165.15L348.48 165.15L348.48 178.55L346.43 178.55L346.43 172.68L340.4 172.68L340.4 178.55L338.36 178.55L338.36 165.15L340.4 165.15L340.4 170.91L346.43 170.91L346.43 165.15ZM370.28 178.55L368.23 178.55L368.23 165.15L370.28 165.15L370.28 178.55ZM372.98 171.91L378.19 178.55L375.61 178.55L370.53 171.93L375.41 165.15L377.89 165.15L372.98 171.91ZM386.11 178.55L386.11 165.15L388.53 165.15L391.83 170.75C392.44 171.8 393 172.77 393.5 173.66C393.99 174.55 394.33 175.17 394.52 175.53L394.8 176.08C394.72 174.88 394.68 173.11 394.68 170.77L394.68 165.15L396.73 165.15L396.73 178.55L394.3 178.55L390.98 172.96C390.38 171.95 389.84 171 389.34 170.11C388.84 169.21 388.49 168.57 388.29 168.17L388 167.59C388.1 168.92 388.16 170.7 388.16 172.94L388.16 178.55L386.11 178.55ZM405.06 171.79C405.06 169.71 405.62 168.04 406.73 166.78C407.84 165.52 409.34 164.89 411.21 164.89C413.11 164.89 414.62 165.51 415.72 166.77C416.82 168.02 417.37 169.69 417.37 171.79C417.37 173.88 416.82 175.56 415.71 176.82C414.6 178.08 413.11 178.71 411.23 178.71C409.36 178.71 407.86 178.08 406.74 176.82C405.62 175.56 405.06 173.88 405.06 171.79ZM408.27 168.14C407.56 169.03 407.21 170.25 407.21 171.79C407.21 173.33 407.57 174.55 408.3 175.45C409.03 176.35 410.01 176.8 411.23 176.8C412.48 176.8 413.47 176.36 414.17 175.47C414.87 174.58 415.22 173.35 415.22 171.79C415.22 170.24 414.87 169.02 414.16 168.13C413.45 167.24 412.46 166.8 411.21 166.8C409.96 166.8 408.98 167.24 408.27 168.14ZM432.84 165.34L434.65 165.34L436.07 170.12L437.88 176.42C438.37 174.01 438.82 171.91 439.25 170.12L440.42 165.15L442.49 165.15L439.21 178.55L436.76 178.55L435.49 174.31L433.76 168.33C433.45 169.59 432.9 171.58 432.09 174.31L430.85 178.55L428.39 178.55L424.87 165.15L427 165.15L428.25 170.1L429.72 176.38C430.32 174.16 430.9 172.06 431.47 170.1L432.84 165.34ZM452.55 176.74L458.04 176.74L458.04 178.55L450.5 178.55L450.5 165.15L452.55 165.15L452.55 176.74ZM468.06 176.84L473.75 176.84L473.75 178.55L466.02 178.55L466.02 165.15L473.65 165.15L473.65 166.86L468.06 166.86L468.06 170.99L473.02 170.99L473.02 172.7L468.06 172.7L468.06 176.84ZM482.2 165.15L486.38 165.15C488.37 165.15 490 165.76 491.27 167C492.55 168.23 493.18 169.8 493.18 171.71C493.18 173.7 492.58 175.34 491.38 176.62C490.18 177.91 488.53 178.55 486.42 178.55L482.2 178.55L482.2 165.15ZM484.29 176.82L486.4 176.82C487.93 176.82 489.09 176.34 489.88 175.39C490.68 174.43 491.07 173.21 491.07 171.71C491.07 170.33 490.64 169.18 489.78 168.27C488.92 167.35 487.77 166.9 486.34 166.9L484.29 166.9L484.29 176.82ZM512.22 170.89L512.22 177.32L512.2 177.32L512.22 177.46C511.06 178.29 509.62 178.71 507.88 178.71C505.79 178.71 504.1 178.09 502.82 176.86C501.54 175.63 500.9 173.95 500.9 171.83C500.9 169.77 501.55 168.11 502.84 166.83C504.13 165.55 505.77 164.91 507.76 164.91C509.31 164.91 510.61 165.21 511.66 165.8L511.66 167.91C510.52 167.19 509.25 166.84 507.84 166.84C506.41 166.84 505.25 167.29 504.37 168.21C503.49 169.12 503.05 170.33 503.05 171.83C503.05 173.37 503.48 174.58 504.35 175.47C505.22 176.36 506.42 176.8 507.94 176.8C508.74 176.8 509.49 176.65 510.21 176.36L510.21 172.66L507.48 172.66L507.48 170.89L512.22 170.89ZM523 176.84L528.68 176.84L528.68 178.55L520.95 178.55L520.95 165.15L528.58 165.15L528.58 166.86L523 166.86L523 170.99L527.95 170.99L527.95 172.7L523 172.7L523 176.84ZM131.05 154.2C132.96 156.03 133.9 158.36 133.7 160.76C133.5 163.22 132.08 165.52 129.82 167.06C126.24 169.5 121.19 170.34 117.5 170.95C112.55 171.77 107.4 172.18 102.15 172.18C94.26 172.18 86.14 171.26 78.13 169.42C72.54 168.14 65.43 166.12 59.9 161.86C55.43 158.42 51.81 152.1 53.77 145.76C56 138.52 63 134.47 66.98 132.7C72.86 130.08 79.63 128.69 87.12 128.55C88.31 128.53 89.56 128.55 90.93 128.63C91.19 126.92 91.73 125.24 92.53 123.61C95.25 118.02 100.46 114.45 105.49 110.99C105.95 110.68 106.4 110.37 106.85 110.05C108.7 108.77 110.62 107.49 112.47 106.25C115.37 104.31 118.37 102.31 121.22 100.23L121.75 99.85L122.04 100.43C122.56 101.45 123.07 102.55 123.65 103.86L123.83 104.28L123.46 104.54C122.61 105.14 121.76 105.73 120.9 106.33C119.09 107.58 117.21 108.83 115.4 110.04C111.08 112.92 106.62 115.9 102.6 119.21C98.85 122.31 96.28 126.17 95.71 129.56C95.71 129.61 95.7 129.67 95.69 129.72C95.68 129.78 95.67 129.85 95.67 129.94L95.64 130.24C95.63 130.35 95.62 130.46 95.61 130.54C95.6 130.7 95.6 130.86 95.59 131.02L95.59 131.16C95.57 132.33 95.83 133.47 96.36 134.53C96.37 134.56 96.39 134.59 96.41 134.62C96.43 134.65 96.45 134.68 96.46 134.72C97.38 136.53 98.79 138.12 100.92 139.72C104.77 142.6 109.37 144.64 113.36 146.25C116.44 147.5 119.64 148.59 122.73 149.66L123.14 149.8C125.55 150.63 128.62 151.88 131.05 154.2ZM128.75 159.27C127.85 156.73 123.66 155.23 122.29 154.73C121.25 154.36 120.2 154 119.16 153.64C116.96 152.87 114.68 152.08 112.47 151.2C105.53 148.44 96.9 145 92.67 138.09C91.83 136.72 91.26 135.21 90.97 133.6C85.39 133.35 80.5 133.76 76.03 134.83C68.01 136.75 62.52 140.04 59.71 144.6C58.35 146.81 57.95 149.11 58.52 151.44C59.26 154.45 61.63 157.34 65.01 159.37C70.9 162.9 77.74 164.46 84.25 165.63C97.59 168.02 110.29 167.87 120.96 165.2L121.11 165.16C123.18 164.65 127.49 163.57 128.65 161.42C129 160.77 129.03 160.07 128.75 159.27Z" />
		<path fill-rule="evenodd" class="shp0" d="M130.52 99.07C134.89 108.57 135.27 116.93 131.66 123.92C129.07 128.91 124.11 132.53 117.69 134.09C114.84 134.79 111.99 135.03 109.18 135.03C106.3 135.03 103.45 134.78 100.7 134.48L100.48 134.46L100.34 134.29C99.44 133.22 98.59 131.86 99.09 129.87L99.21 129.4L99.69 129.45C102.91 129.81 106.07 130.13 109.31 130.12C114.27 130.1 121.08 129.09 125.38 124.36C128.62 120.8 131.47 114.13 126.66 102.57L126.64 102.52C126.62 102.46 126.6 102.4 126.57 102.33C125.31 99.44 124.02 97.02 122.64 94.91C117.34 86.43 110.29 79.47 102.25 74.77C95.91 71.07 88.36 68.59 80.42 67.6L80.37 67.59C80.3 67.58 80.22 67.56 80.15 67.56C78.43 67.35 76.72 67.21 75.09 67.15C75.01 67.15 74.94 67.15 74.87 67.15L74.85 67.16L74.82 67.16C71.25 67.03 68.4 67.28 65.83 67.92C64.31 68.3 63.21 68.73 62.27 69.32C61.57 69.77 61.02 70.34 60.82 70.86C60.6 71.41 60.63 72.07 60.93 72.92C61.43 74.37 62.45 75.63 63.28 76.57C65.68 79.27 68.45 81.6 71.31 83.29C72.29 83.87 72.73 84.07 73.66 84.34C74.06 84.47 74.08 84.47 74.31 84.39C74.33 84.38 74.36 84.38 74.38 84.37L74.41 84.34C74.42 84.33 74.45 84.3 74.47 84.27L74.49 84.25C74.53 84.18 74.57 84.12 74.6 84.06C74.68 83.93 74.73 83.84 74.77 83.78C74.79 83.72 74.81 83.64 74.84 83.54C74.97 83.13 75.07 82.77 75.14 82.42C75.49 80.78 75.52 78.37 75.51 76.46C75.5 74.71 75.44 72.99 75.38 71.08L75.36 70.48L75.96 70.51C77.24 70.58 78.56 70.69 79.88 70.84L80.35 70.89L80.37 71.37C80.47 74.32 80.52 76.81 80.42 79.32C80.3 82.14 80.05 88.02 75.55 89.18C73.26 89.78 70.95 88.73 69.4 87.9C66.77 86.47 64.07 84.38 61.13 81.49C59.44 79.82 55.53 75.44 55.87 70.9C56.04 68.75 57.15 66.92 59.17 65.46C61.91 63.49 65.41 62.84 68.16 62.5C70.35 62.22 72.7 62.13 75.16 62.21C75.17 53.23 76.44 42.68 85.43 39.08C87.89 38.1 90.83 37.77 94.18 38.12C112.77 40.26 130.66 54.47 137.68 72.68C139.15 76.5 139.86 80.06 139.79 83.28C139.71 86.92 138.52 89.96 135.83 93.46C134.35 95.39 132.61 97.22 130.52 99.07ZM134.5 85.87C135.83 80.74 133.94 74.17 128.88 66.31C123.7 58.25 116.26 51.5 107.94 47.3C103.44 45.03 98.77 43.6 94.06 43.06C88.4 42.48 84.64 44.14 82.56 48.16C80.42 52.29 80.17 57.74 80.15 62.61C80.17 62.61 80.18 62.62 80.2 62.62C90.28 63.84 99.39 66.95 106.55 71.61C115.49 77.42 122.97 85.37 128.23 94.63C130.61 92.49 133.59 89.4 134.5 85.87ZM184.56 125.84L204.55 81.25C205.62 78.87 207.55 77.41 210.24 77.41L210.7 77.41C213.39 77.41 215.23 78.87 216.31 81.25L236.3 125.84C236.68 126.53 236.84 127.22 236.84 127.84C236.84 130.38 234.91 132.37 232.38 132.37C230.15 132.37 228.61 131.07 227.77 129.07L223.38 119L197.25 119L192.71 129.38C191.94 131.3 190.33 132.37 188.33 132.37C185.87 132.37 183.95 130.45 183.95 127.99C183.95 127.3 184.18 126.61 184.56 125.84ZM219.77 110.62L210.31 88.86L200.86 110.62L219.77 110.62ZM246.89 127.84L246.89 127.61C246.89 125.99 247.51 124.53 248.66 123.23L278.95 86.56L251.97 86.56C249.74 86.56 247.81 84.71 247.81 82.41C247.81 80.1 249.74 78.18 251.97 78.18L287.33 78.18C289.63 78.18 291.56 80.1 291.56 82.33L291.56 82.56C291.56 84.17 290.94 85.56 289.87 86.94L259.5 123.61L287.48 123.61C289.79 123.61 291.71 125.53 291.71 127.84C291.71 130.15 289.79 131.99 287.48 131.99L251.12 131.99C248.89 131.99 246.89 130.07 246.89 127.84ZM299.77 105.24L299.77 105.08C299.77 89.94 311.45 77.25 327.98 77.25C344.51 77.25 356.04 89.79 356.04 104.93L356.04 105.08C356.04 120.23 344.36 132.91 327.83 132.91C311.3 132.91 299.77 120.38 299.77 105.24ZM346.12 105.24L346.12 105.08C346.12 94.63 338.51 85.94 327.83 85.94C317.14 85.94 309.68 94.47 309.68 104.93L309.68 105.08C309.68 115.54 317.3 124.15 327.98 124.15C338.67 124.15 346.12 115.69 346.12 105.24ZM369.63 82.48C369.63 79.87 371.71 77.79 374.4 77.79C377.01 77.79 379.09 79.87 379.09 82.48L379.09 123.38L403.46 123.38C405.84 123.38 407.76 125.3 407.76 127.69C407.76 130.07 405.84 131.99 403.46 131.99L374.4 131.99C371.71 131.99 369.63 129.91 369.63 127.22L369.63 82.48ZM429.13 128.92L410.3 84.64C409.99 83.94 409.76 83.25 409.76 82.41C409.76 79.87 411.84 77.79 414.53 77.79C416.99 77.79 418.6 79.18 419.37 81.18L434.9 120L450.66 80.87C451.27 79.25 452.96 77.79 455.19 77.79C457.81 77.79 459.88 79.79 459.88 82.33C459.88 83.02 459.65 83.79 459.42 84.33L440.51 128.92C439.51 131.3 437.74 132.76 435.05 132.76L434.51 132.76C431.9 132.76 430.13 131.3 429.13 128.92ZM472.48 127.22L472.48 82.94C472.48 80.25 474.56 78.18 477.25 78.18L508.54 78.18C510.84 78.18 512.77 80.1 512.77 82.41C512.77 84.79 510.84 86.63 508.54 86.63L481.94 86.63L481.94 100.63L505.08 100.63C507.38 100.63 509.31 102.55 509.31 104.93C509.31 107.24 507.38 109.08 505.08 109.08L481.94 109.08L481.94 123.53L508.92 123.53C511.23 123.53 513.15 125.46 513.15 127.76C513.15 130.15 511.23 131.99 508.92 131.99L477.25 131.99C474.56 131.99 472.48 129.91 472.48 127.22ZM527.97 82.94C527.97 80.25 530.04 78.18 532.73 78.18L551.95 78.18C558.72 78.18 564.02 80.18 567.48 83.56C570.32 86.48 571.94 90.48 571.94 95.17L571.94 95.32C571.94 103.93 566.94 109.16 559.72 111.39L570.02 124.38C570.94 125.53 571.55 126.53 571.55 127.99C571.55 130.61 569.33 132.38 567.02 132.38C564.87 132.38 563.48 131.38 562.41 129.92L549.34 113.23L537.42 113.23L537.42 127.69C537.42 130.3 535.35 132.38 532.73 132.38C530.04 132.38 527.97 130.3 527.97 127.69L527.97 82.94ZM551.26 104.85C558.02 104.85 562.33 101.32 562.33 95.86L562.33 95.71C562.33 89.94 558.18 86.79 551.18 86.79L537.42 86.79L537.42 104.85L551.26 104.85Z" />
	</g>
</svg>